<?xml version="1.0" encoding="UTF-8"?>
<svg xmlns="http://www.w3.org/2000/svg" xmlns:xlink="http://www.w3.org/1999/xlink" width="308px" height="304px" viewBox="0 0 308 304" version="1.1">
<defs>
<clipPath id="clip1">
  <path d="M 46.199219 46 L 261.800781 46 L 261.800781 258 L 46.199219 258 Z M 46.199219 46 "/>
</clipPath>
<clipPath id="clip2">
  <path d="M 89.320312 103.628906 L 218.679688 103.628906 L 218.679688 200.367188 L 89.320312 200.367188 Z M 89.320312 103.628906 "/>
</clipPath>
</defs>
<g id="surface1">
<rect x="0" y="0" width="308" height="304" style="fill:rgb(93.333333%,24.313725%,21.960784%);fill-opacity:1;stroke:none;"/>
<g clip-path="url(#clip1)" clip-rule="nonzero">
<path style=" stroke:none;fill-rule:nonzero;fill:rgb(100%,100%,100%);fill-opacity:1;" d="M 103.8125 54.167969 C 103.8125 53.425781 104.1875 52.683594 104.941406 52.683594 C 105.691406 52.683594 106.445312 53.054688 106.445312 54.167969 C 106.820312 54.167969 107.574219 54.167969 107.949219 53.796875 C 109.453125 53.796875 110.957031 53.425781 112.085938 53.796875 C 113.214844 54.167969 113.96875 54.167969 115.097656 54.539062 C 116.226562 54.910156 116.976562 54.539062 117.730469 54.167969 C 119.234375 53.796875 120.363281 53.054688 121.867188 52.683594 C 122.621094 52.3125 122.996094 52.3125 123.746094 52.3125 C 124.5 51.941406 125.253906 51.941406 126.382812 51.570312 C 128.261719 51.199219 130.140625 50.828125 131.648438 50.085938 C 133.152344 49.339844 134.65625 49.339844 136.160156 48.96875 C 136.914062 48.96875 137.289062 48.597656 138.042969 48.226562 C 138.417969 48.226562 138.417969 47.855469 138.792969 47.484375 C 139.546875 47.113281 139.921875 46.742188 140.675781 47.113281 C 141.050781 47.484375 141.804688 47.484375 142.179688 47.113281 L 142.554688 47.113281 C 144.8125 47.113281 147.070312 46.742188 149.703125 47.113281 C 150.078125 47.113281 150.457031 47.113281 150.457031 47.113281 C 151.582031 46.371094 153.089844 46.371094 154.59375 46.371094 C 154.96875 46.371094 155.722656 46.371094 156.097656 46.371094 L 156.472656 46.371094 C 157.976562 46.371094 159.484375 46.371094 160.613281 46.742188 C 161.742188 46.742188 162.492188 47.113281 163.621094 47.484375 C 164.75 47.484375 165.503906 47.484375 166.628906 47.855469 C 167.382812 47.855469 168.136719 47.855469 168.886719 47.855469 C 169.265625 47.855469 169.640625 47.855469 169.640625 47.855469 C 171.144531 48.226562 172.648438 48.226562 174.152344 48.226562 C 175.28125 48.597656 176.410156 48.96875 177.914062 48.96875 C 178.292969 48.96875 178.667969 48.96875 179.042969 48.96875 C 179.417969 48.96875 179.796875 49.339844 180.171875 49.339844 L 180.546875 49.714844 C 182.054688 49.714844 183.179688 50.457031 184.6875 50.457031 C 185.0625 50.457031 185.816406 50.457031 186.191406 50.828125 C 187.320312 51.570312 188.824219 51.941406 190.328125 51.941406 C 191.082031 51.941406 191.457031 52.3125 191.832031 52.683594 C 192.960938 53.054688 193.714844 53.425781 194.84375 53.796875 C 195.59375 54.167969 196.347656 53.796875 197.101562 54.167969 C 198.226562 54.539062 199.734375 54.910156 200.863281 56.023438 C 201.613281 56.765625 202.367188 56.765625 203.496094 57.507812 C 203.871094 57.507812 204.246094 57.878906 204.621094 58.253906 C 205.75 58.996094 206.878906 59.738281 208.007812 60.109375 C 208.382812 60.109375 208.761719 60.480469 209.136719 60.480469 C 210.265625 61.222656 211.394531 62.335938 212.898438 63.078125 C 213.652344 63.449219 214.027344 63.820312 214.78125 64.191406 L 215.15625 64.191406 C 216.285156 65.304688 217.789062 66.050781 218.917969 67.164062 C 220.046875 68.277344 220.796875 69.019531 222.304688 69.761719 C 222.304688 69.761719 222.304688 69.761719 222.304688 70.132812 C 222.679688 70.875 223.054688 71.246094 223.808594 71.617188 C 224.558594 71.988281 224.9375 72.359375 225.3125 72.730469 C 226.441406 73.476562 227.570312 74.21875 228.320312 74.960938 C 228.699219 75.332031 229.074219 75.703125 229.824219 76.445312 C 230.203125 76.816406 230.578125 77.1875 230.953125 77.1875 C 232.457031 77.558594 233.210938 78.671875 234.339844 79.785156 C 235.09375 80.527344 236.222656 81.644531 236.972656 82.386719 C 237.347656 82.757812 237.726562 83.5 238.101562 84.242188 C 238.855469 86.46875 239.984375 88.699219 241.109375 90.554688 C 241.109375 90.554688 241.109375 90.925781 241.488281 91.296875 L 241.488281 91.667969 C 242.238281 92.410156 242.617188 93.523438 243.367188 94.265625 C 243.746094 94.636719 243.746094 95.007812 244.121094 95.378906 C 244.871094 96.492188 245.25 97.980469 246 99.09375 C 247.128906 100.949219 247.882812 102.804688 248.632812 104.660156 L 248.632812 105.03125 C 249.011719 105.777344 249.386719 106.519531 249.761719 107.632812 C 249.761719 108.375 250.515625 109.117188 250.890625 110.230469 C 251.265625 112.089844 252.394531 113.945312 252.773438 116.171875 C 252.773438 116.542969 253.148438 116.914062 253.148438 117.65625 C 253.523438 118.769531 253.902344 119.882812 254.277344 121 C 254.277344 121.371094 254.652344 121.742188 255.027344 122.113281 C 255.78125 122.855469 255.78125 123.597656 255.78125 124.339844 C 255.40625 125.824219 255.78125 127.308594 256.15625 128.792969 C 256.15625 129.164062 256.15625 129.539062 256.15625 130.28125 C 256.535156 131.765625 256.910156 133.621094 256.910156 135.105469 C 256.910156 135.476562 256.910156 136.222656 256.910156 136.59375 C 256.910156 137.707031 257.285156 138.820312 258.039062 139.933594 C 258.039062 140.304688 258.414062 140.304688 258.414062 140.304688 C 258.789062 140.675781 259.167969 141.417969 259.542969 141.789062 C 259.917969 142.160156 259.917969 142.160156 260.296875 142.53125 C 261.046875 143.273438 261.425781 144.015625 261.425781 145.132812 C 261.425781 145.503906 261.046875 146.246094 261.046875 146.617188 C 261.046875 146.988281 261.046875 147.730469 261.425781 148.101562 C 261.800781 148.472656 261.800781 148.84375 261.800781 149.214844 C 261.800781 149.585938 261.425781 149.957031 261.046875 149.957031 C 260.671875 151.070312 259.167969 151.441406 258.789062 152.554688 C 258.414062 154.042969 258.039062 155.527344 257.664062 157.011719 C 257.285156 158.125 257.285156 158.867188 257.285156 159.984375 C 257.285156 161.097656 256.910156 161.839844 256.910156 162.953125 C 256.535156 164.4375 256.15625 165.921875 255.78125 167.40625 C 255.78125 168.152344 255.40625 168.894531 255.40625 169.636719 C 255.78125 170.007812 256.15625 170.378906 256.535156 170.378906 C 257.285156 171.121094 258.039062 171.863281 258.789062 172.605469 C 259.167969 172.976562 259.167969 173.347656 258.789062 173.347656 C 258.414062 173.71875 258.039062 173.71875 257.664062 173.71875 C 257.285156 173.347656 256.535156 172.976562 256.15625 172.976562 C 255.78125 172.605469 255.027344 172.234375 254.277344 172.605469 C 254.277344 173.347656 253.902344 174.089844 253.898438 174.460938 C 253.523438 175.207031 253.148438 176.320312 253.148438 177.0625 C 252.773438 178.546875 252.019531 179.660156 251.644531 181.144531 C 250.890625 183.003906 250.140625 184.488281 249.386719 185.972656 C 249.011719 186.714844 248.632812 187.457031 248.257812 188.199219 C 248.257812 189.3125 247.128906 190.425781 246.753906 191.539062 C 246 193.027344 245.25 194.511719 244.496094 196.367188 C 244.121094 197.109375 243.746094 197.851562 243.367188 198.222656 C 242.617188 200.082031 241.863281 201.566406 240.734375 203.050781 C 239.980469 204.164062 239.230469 204.90625 238.476562 205.277344 C 237.726562 206.019531 236.972656 206.761719 236.222656 207.507812 C 235.84375 207.878906 235.46875 208.25 235.09375 208.621094 C 234.714844 208.992188 234.714844 208.992188 234.339844 209.363281 C 233.585938 210.476562 232.457031 211.21875 231.707031 212.332031 C 230.953125 213.074219 230.578125 213.816406 229.449219 214.558594 C 228.699219 215.304688 227.945312 216.417969 226.816406 216.789062 C 226.441406 217.160156 226.0625 217.902344 225.6875 218.273438 C 225.3125 218.644531 224.9375 219.386719 224.558594 219.757812 C 224.558594 220.5 224.9375 221.242188 224.9375 221.613281 C 224.9375 222.730469 223.808594 223.101562 223.054688 222.355469 C 221.925781 221.613281 221.925781 221.613281 220.796875 222.355469 C 219.667969 223.101562 218.542969 224.214844 217.035156 224.585938 C 216.660156 224.585938 216.660156 224.957031 216.285156 224.957031 C 215.53125 225.328125 215.15625 226.070312 214.402344 226.441406 C 213.652344 227.183594 212.523438 227.554688 211.769531 228.296875 C 211.394531 228.667969 211.015625 228.667969 210.640625 229.039062 C 209.511719 229.78125 208.382812 230.152344 207.257812 231.269531 C 206.878906 231.640625 206.503906 231.640625 206.128906 232.011719 C 206.128906 232.382812 206.128906 232.382812 206.128906 232.753906 C 206.128906 233.496094 205.375 234.238281 204.246094 233.867188 C 203.117188 233.496094 202.367188 233.867188 201.238281 233.867188 C 200.109375 234.238281 198.980469 234.980469 197.851562 235.351562 C 197.476562 235.351562 197.101562 235.722656 196.722656 236.09375 C 195.59375 236.835938 194.464844 237.207031 193.339844 237.578125 C 192.585938 237.578125 191.832031 238.324219 191.082031 238.324219 C 190.707031 238.324219 190.328125 238.695312 189.953125 238.695312 L 189.578125 238.695312 C 188.070312 239.808594 186.566406 240.550781 185.0625 241.664062 C 184.6875 241.664062 184.6875 242.035156 184.308594 242.40625 C 183.933594 243.148438 183.558594 243.519531 182.804688 243.519531 C 180.925781 243.519531 180.171875 245.003906 180.546875 246.492188 C 180.546875 246.863281 180.925781 247.234375 180.925781 247.605469 C 181.300781 248.347656 180.925781 249.089844 180.546875 249.460938 C 180.171875 249.832031 179.042969 249.832031 178.667969 249.089844 C 177.914062 248.347656 177.539062 247.605469 177.164062 246.492188 C 176.785156 245.746094 176.035156 245.003906 175.28125 244.632812 C 174.53125 244.261719 173.777344 244.261719 173.023438 244.632812 C 172.648438 244.632812 172.648438 245.003906 172.273438 245.003906 C 171.519531 245.746094 170.390625 246.117188 169.265625 245.746094 C 168.886719 245.746094 168.136719 245.746094 168.136719 246.117188 C 167.757812 246.488281 167.757812 247.234375 168.136719 247.605469 C 168.886719 248.347656 168.511719 249.089844 168.511719 250.203125 C 168.511719 251.6875 167.382812 252.429688 165.878906 251.6875 C 165.503906 251.316406 165.125 251.316406 164.75 250.945312 C 164.375 250.945312 164.375 250.574219 164.375 250.203125 C 163.996094 249.832031 163.996094 249.089844 163.621094 248.347656 C 162.867188 248.71875 162.117188 248.71875 161.363281 249.089844 C 160.988281 249.089844 160.613281 249.460938 160.234375 249.460938 C 159.105469 249.460938 158.730469 249.460938 158.355469 248.347656 C 157.980469 247.234375 157.226562 247.234375 156.472656 246.863281 C 154.96875 246.492188 153.089844 246.492188 151.582031 245.746094 L 151.207031 245.746094 C 149.703125 244.632812 148.199219 244.632812 146.316406 244.632812 C 145.1875 244.632812 144.0625 245.003906 142.933594 245.003906 C 141.804688 245.003906 141.050781 245.375 140.300781 246.117188 C 139.921875 246.488281 139.546875 246.863281 139.171875 246.863281 C 138.792969 246.492188 138.792969 246.117188 138.417969 245.746094 L 138.417969 245.375 C 138.417969 245.003906 138.042969 244.632812 137.667969 245.003906 C 136.914062 245.375 136.160156 244.632812 135.410156 244.261719 C 135.035156 243.890625 134.28125 243.148438 134.28125 242.40625 C 133.90625 242.035156 133.527344 241.664062 133.152344 241.664062 C 132.398438 241.664062 131.269531 241.292969 130.519531 241.292969 C 130.144531 241.292969 129.765625 241.292969 129.765625 240.921875 C 129.390625 240.550781 129.015625 240.550781 128.261719 240.550781 C 127.886719 240.550781 127.886719 240.179688 127.507812 240.179688 C 128.261719 240.921875 128.636719 241.664062 129.015625 242.40625 C 129.015625 242.777344 129.390625 242.777344 129.390625 243.148438 C 129.765625 243.890625 129.390625 244.261719 128.261719 244.261719 C 127.507812 244.261719 127.507812 244.261719 127.132812 244.632812 C 127.132812 245.375 127.132812 245.746094 127.132812 246.492188 C 127.132812 246.863281 127.132812 247.234375 126.382812 247.605469 C 126.382812 247.605469 126.003906 247.605469 126.003906 247.976562 C 125.628906 248.347656 125.628906 248.71875 126.003906 249.089844 C 127.132812 249.832031 127.886719 250.203125 129.015625 250.574219 C 130.140625 250.574219 130.140625 251.316406 130.519531 252.058594 C 130.894531 252.800781 130.519531 253.171875 130.140625 253.914062 C 129.390625 254.660156 128.636719 255.402344 127.886719 256.144531 C 126.757812 256.515625 126.003906 257.628906 124.875 257.628906 C 124.125 257.628906 123.371094 257.257812 122.996094 256.515625 C 122.621094 254.65625 122.621094 253.171875 123.371094 251.316406 C 123.371094 250.945312 123.746094 250.574219 123.371094 250.203125 C 119.988281 250.203125 119.988281 249.460938 119.988281 249.089844 C 119.988281 248.347656 120.363281 247.976562 120.363281 247.234375 C 120.738281 246.488281 120.363281 246.117188 119.234375 245.746094 C 118.859375 245.746094 118.480469 245.746094 118.105469 245.746094 C 117.730469 245.746094 117.730469 245.375 116.976562 245.375 C 117.730469 245.003906 118.105469 245.003906 118.859375 244.632812 C 118.480469 243.148438 118.105469 242.035156 116.976562 241.292969 C 116.601562 240.921875 116.222656 240.550781 116.226562 239.808594 C 116.226562 238.695312 115.472656 237.949219 115.097656 237.207031 C 114.34375 236.09375 112.839844 235.722656 111.710938 235.722656 C 110.582031 235.351562 109.828125 235.351562 108.699219 234.980469 C 107.574219 234.609375 106.445312 233.496094 105.316406 233.125 C 104.941406 232.753906 104.5625 232.382812 103.8125 232.011719 C 102.304688 231.269531 101.179688 230.152344 100.050781 229.039062 C 99.296875 228.667969 98.921875 227.925781 98.167969 227.554688 C 97.417969 226.8125 97.039062 226.070312 96.289062 225.699219 C 95.535156 224.957031 94.785156 224.214844 93.65625 223.472656 C 92.527344 222.726562 91.773438 221.613281 90.644531 220.5 C 89.894531 219.386719 88.765625 218.644531 87.636719 217.902344 C 87.261719 217.902344 86.882812 217.902344 86.507812 217.902344 C 86.132812 217.902344 85.753906 218.273438 85.378906 218.273438 C 84.25 218.644531 83.5 219.386719 82.371094 219.757812 C 82.746094 219.386719 82.746094 219.386719 82.371094 218.644531 C 81.992188 218.273438 81.617188 217.902344 81.242188 217.902344 C 80.488281 217.902344 79.738281 217.902344 78.984375 217.902344 C 77.480469 217.902344 75.976562 218.273438 74.46875 218.273438 C 73.34375 218.273438 71.835938 218.644531 70.710938 219.015625 C 71.085938 219.757812 71.085938 220.128906 71.460938 220.871094 C 70.707031 221.242188 69.957031 221.242188 69.203125 221.242188 C 68.828125 221.242188 68.074219 221.613281 67.699219 221.984375 C 67.324219 221.984375 67.324219 222.355469 66.949219 221.984375 C 66.195312 221.613281 65.441406 221.984375 64.691406 222.355469 L 64.3125 222.355469 C 64.3125 222.355469 64.3125 221.984375 64.691406 221.984375 C 65.066406 221.613281 65.441406 221.242188 65.820312 220.871094 C 66.195312 220.5 66.570312 220.5 67.324219 220.128906 C 66.949219 219.757812 66.949219 219.386719 66.949219 219.386719 C 66.570312 219.015625 66.195312 219.015625 65.820312 219.386719 C 65.441406 219.757812 65.066406 220.128906 64.691406 220.5 C 64.3125 220.871094 63.9375 220.871094 63.5625 220.5 C 63.1875 220.128906 63.1875 219.757812 63.5625 219.386719 C 63.5625 219.015625 63.9375 218.644531 64.3125 218.273438 C 64.691406 217.902344 64.691406 217.53125 65.066406 217.160156 C 64.3125 216.417969 63.9375 215.675781 63.183594 215.300781 C 62.058594 214.558594 60.929688 213.445312 60.175781 212.332031 C 59.421875 210.847656 58.296875 209.734375 56.789062 208.992188 C 56.414062 208.621094 56.039062 208.25 55.664062 207.878906 C 55.285156 207.507812 55.285156 207.507812 54.910156 207.132812 C 53.78125 207.503906 53.027344 208.25 51.902344 208.621094 C 51.523438 208.621094 51.523438 208.992188 51.148438 209.363281 C 50.773438 210.105469 50.019531 210.105469 49.269531 210.105469 C 48.890625 210.105469 48.515625 209.734375 48.890625 209.363281 C 49.269531 208.621094 49.644531 207.878906 50.773438 208.25 C 50.773438 208.25 51.148438 208.25 51.148438 207.878906 C 51.902344 207.132812 52.652344 206.019531 53.78125 205.277344 C 53.40625 204.164062 52.652344 203.421875 52.277344 202.679688 C 51.902344 202.308594 51.902344 201.9375 51.902344 201.195312 C 51.902344 200.824219 51.902344 200.824219 51.523438 200.453125 C 51.523438 200.453125 51.148438 200.453125 50.773438 200.824219 C 50.394531 201.195312 49.644531 201.566406 48.890625 200.824219 C 48.890625 200.453125 48.890625 200.082031 49.269531 199.710938 L 49.644531 199.339844 C 50.773438 198.96875 50.773438 197.851562 50.773438 196.738281 L 50.773438 196.367188 C 50.394531 195.625 50.394531 195.253906 51.148438 194.511719 C 52.277344 193.769531 53.40625 192.285156 53.78125 191.167969 C 54.15625 190.425781 54.910156 190.054688 55.664062 189.3125 C 56.414062 188.570312 57.167969 187.828125 57.542969 186.714844 L 57.917969 186.714844 C 59.421875 187.085938 59.800781 185.972656 60.550781 184.859375 C 60.550781 184.488281 60.550781 184.117188 60.929688 184.117188 C 61.679688 183.371094 61.679688 182.628906 61.304688 181.515625 C 61.304688 181.144531 60.929688 180.402344 60.929688 180.03125 C 60.929688 179.660156 60.929688 179.660156 60.550781 179.289062 C 59.421875 178.546875 59.421875 177.804688 60.550781 177.0625 C 61.304688 176.691406 61.304688 175.949219 61.679688 175.578125 C 62.058594 174.832031 62.058594 174.089844 62.058594 172.976562 C 61.679688 171.863281 61.679688 170.378906 61.304688 169.265625 C 60.929688 167.78125 60.550781 165.921875 60.175781 164.4375 C 60.175781 164.066406 60.175781 164.066406 60.175781 163.695312 C 60.175781 162.582031 60.175781 161.839844 59.800781 160.726562 C 59.425781 160.355469 59.425781 159.609375 59.421875 159.238281 C 59.046875 158.125 58.671875 157.382812 57.542969 157.011719 C 56.414062 156.269531 54.910156 155.898438 53.78125 155.15625 C 53.40625 154.785156 53.027344 155.15625 52.652344 155.527344 C 52.277344 156.269531 51.523438 157.011719 51.148438 157.753906 C 50.773438 158.125 50.394531 158.867188 50.019531 159.609375 C 49.265625 160.355469 47.761719 161.097656 46.632812 159.984375 C 46.257812 159.238281 45.882812 158.867188 46.632812 158.125 C 47.386719 157.011719 48.140625 155.898438 49.269531 155.15625 C 49.644531 154.785156 50.019531 154.042969 50.394531 153.671875 C 50.773438 152.925781 50.773438 152.183594 50.773438 151.441406 C 50.394531 149.957031 50.019531 148.472656 50.019531 146.617188 C 50.019531 144.757812 50.019531 143.273438 50.394531 141.417969 C 50.773438 140.675781 50.773438 139.5625 51.148438 138.820312 C 51.148438 138.449219 51.523438 137.707031 51.902344 137.335938 C 52.652344 136.59375 53.40625 135.851562 53.78125 134.734375 C 54.15625 133.621094 54.910156 132.507812 54.910156 131.394531 C 54.910156 131.023438 55.285156 130.652344 55.285156 130.28125 C 55.285156 129.910156 55.664062 129.167969 55.664062 128.792969 C 55.285156 127.679688 55.664062 126.9375 56.039062 126.195312 C 56.414062 125.453125 56.789062 124.339844 57.167969 123.597656 C 57.917969 122.113281 57.917969 120.253906 59.421875 118.769531 C 59.800781 118.027344 60.175781 117.285156 60.550781 116.542969 C 60.929688 115.058594 61.679688 113.945312 62.433594 112.832031 C 62.808594 112.460938 62.808594 112.460938 62.808594 112.085938 C 63.183594 110.972656 63.9375 109.859375 64.691406 108.746094 C 65.441406 107.632812 65.441406 106.519531 65.820312 105.40625 C 65.820312 105.035156 65.820312 104.660156 66.195312 104.289062 C 67.324219 103.175781 66.949219 101.691406 66.570312 100.207031 C 65.816406 98.351562 65.441406 96.492188 65.820312 94.636719 C 65.820312 94.265625 65.820312 93.894531 66.195312 93.894531 C 66.570312 93.152344 66.570312 92.78125 66.949219 92.039062 L 66.949219 91.667969 C 67.699219 90.925781 68.453125 89.808594 69.582031 89.441406 C 71.085938 88.695312 72.589844 88.324219 74.46875 87.953125 C 75.976562 87.953125 77.480469 87.210938 78.609375 85.726562 C 78.609375 85.355469 78.984375 85.355469 79.359375 84.984375 L 79.738281 84.613281 C 80.113281 83.871094 80.488281 83.5 80.863281 83.128906 C 81.617188 82.386719 82.371094 81.269531 83.121094 80.527344 C 83.875 79.785156 84.625 78.671875 85.753906 77.558594 L 86.132812 77.1875 C 86.882812 76.445312 87.636719 75.703125 88.386719 75.332031 C 89.140625 74.589844 89.894531 73.847656 90.644531 73.101562 C 91.398438 72.359375 91.773438 71.617188 92.527344 70.875 C 93.277344 70.503906 94.03125 69.761719 94.785156 69.019531 C 95.535156 68.277344 96.289062 67.535156 96.664062 67.164062 C 97.417969 66.417969 98.546875 65.675781 99.296875 65.304688 C 100.050781 64.933594 100.800781 64.5625 101.179688 63.449219 C 101.554688 62.335938 101.929688 61.59375 102.304688 60.480469 C 102.304688 59.738281 102.683594 58.996094 103.058594 58.253906 C 103.433594 58.253906 103.8125 58.253906 104.5625 57.882812 C 104.1875 57.511719 103.8125 57.511719 103.8125 57.136719 C 103.8125 56.765625 104.1875 56.394531 104.1875 56.394531 C 104.1875 56.023438 104.5625 55.652344 104.5625 55.28125 C 104.5625 55.28125 104.941406 55.28125 104.941406 54.910156 C 104.941406 54.910156 105.316406 54.910156 105.316406 54.539062 C 104.5625 54.910156 104.1875 54.539062 103.8125 54.167969 C 104.1875 54.539062 104.5625 54.539062 105.316406 54.910156 C 105.316406 54.910156 105.691406 54.910156 105.691406 54.539062 C 105.691406 54.167969 105.691406 53.796875 105.691406 53.796875 C 105.691406 53.796875 105.316406 53.796875 104.941406 53.796875 C 104.5625 53.796875 104.1875 54.167969 103.8125 54.167969 Z M 168.886719 228.667969 C 168.886719 228.296875 168.511719 228.296875 168.511719 227.925781 C 168.136719 227.183594 168.511719 226.8125 168.886719 226.441406 C 169.265625 226.070312 169.640625 226.070312 170.390625 226.070312 C 171.144531 226.441406 171.519531 226.8125 171.519531 227.554688 C 171.519531 227.925781 171.519531 228.667969 171.519531 229.039062 C 171.898438 230.523438 171.898438 230.523438 173.402344 230.523438 C 174.152344 230.523438 174.90625 230.523438 175.660156 230.523438 C 177.164062 230.152344 178.667969 229.410156 180.171875 229.039062 C 181.675781 228.667969 183.183594 228.296875 184.6875 227.925781 C 185.0625 227.925781 185.4375 227.925781 186.191406 227.925781 C 187.695312 228.296875 188.824219 227.925781 189.953125 227.183594 C 190.328125 226.8125 191.082031 226.8125 191.457031 226.441406 C 192.210938 226.070312 192.960938 226.070312 193.714844 225.699219 C 195.59375 224.585938 197.476562 223.84375 198.980469 222.730469 C 200.109375 221.984375 201.238281 221.242188 202.367188 220.5 C 203.496094 219.757812 204.621094 219.015625 205.75 218.273438 C 206.503906 217.902344 207.632812 217.160156 208.382812 216.417969 C 209.890625 215.300781 211.015625 214.1875 212.523438 213.445312 C 213.273438 213.074219 213.652344 212.703125 214.027344 212.332031 C 214.78125 211.960938 215.15625 211.21875 215.90625 210.847656 C 216.285156 210.476562 216.660156 210.105469 217.414062 209.734375 C 217.789062 209.363281 217.789062 209.363281 217.789062 208.992188 C 218.917969 208.25 220.046875 206.761719 220.796875 205.648438 C 221.550781 204.90625 222.304688 204.164062 223.054688 203.050781 C 224.183594 201.9375 224.9375 200.453125 226.0625 198.96875 C 226.816406 198.222656 227.570312 197.109375 227.945312 196.367188 C 228.699219 194.882812 229.449219 193.398438 230.578125 192.285156 L 230.578125 191.914062 C 231.332031 190.425781 232.082031 188.941406 232.835938 187.457031 C 233.964844 185.601562 234.714844 183.375 235.84375 181.515625 C 236.21875 180.773438 236.597656 180.03125 236.597656 179.289062 C 237.351562 177.804688 237.726562 176.320312 238.101562 174.832031 C 238.101562 174.460938 238.101562 174.460938 238.476562 174.089844 C 239.605469 171.863281 240.359375 169.636719 240.734375 167.035156 C 241.109375 165.550781 241.488281 164.066406 241.863281 162.582031 C 242.617188 160.355469 242.617188 158.496094 242.992188 156.269531 C 243.367188 154.785156 243.367188 152.929688 243.367188 151.445312 C 243.746094 149.214844 243.746094 146.617188 243.367188 144.390625 C 243.367188 142.53125 242.992188 140.304688 242.992188 138.449219 C 242.992188 136.59375 242.617188 135.105469 242.238281 133.25 C 241.863281 131.394531 241.488281 129.910156 241.109375 128.050781 C 240.359375 126.566406 239.984375 125.082031 239.605469 123.226562 C 239.230469 121.742188 238.476562 120.628906 238.476562 119.140625 C 238.476562 118.027344 238.101562 116.914062 236.972656 116.542969 C 235.84375 116.171875 235.09375 115.800781 233.964844 115.058594 C 231.707031 113.574219 230.578125 111.714844 230.953125 109.488281 C 230.953125 108.375 231.332031 106.890625 231.707031 105.777344 C 232.082031 104.660156 232.460938 103.546875 231.707031 102.804688 C 231.332031 101.691406 230.578125 100.949219 230.203125 100.207031 C 229.449219 99.09375 229.074219 98.351562 228.320312 97.609375 C 227.570312 96.121094 226.816406 94.636719 225.6875 93.523438 C 224.183594 91.667969 223.054688 89.8125 221.175781 88.324219 L 220.796875 87.953125 C 219.667969 86.46875 218.542969 84.984375 217.035156 83.871094 C 216.285156 83.128906 215.53125 82.386719 214.78125 82.015625 C 214.402344 81.644531 214.027344 81.269531 213.273438 80.898438 C 212.148438 80.15625 211.019531 79.785156 210.265625 79.042969 C 209.136719 77.929688 207.632812 77.1875 206.503906 76.445312 C 206.503906 76.445312 206.128906 76.445312 206.128906 76.074219 C 204.625 75.332031 203.496094 74.960938 201.988281 74.21875 C 200.484375 73.472656 198.980469 73.101562 197.476562 73.101562 C 197.101562 73.101562 197.101562 73.101562 196.722656 73.101562 C 196.347656 72.730469 195.59375 72.730469 195.21875 72.730469 C 194.84375 72.730469 194.84375 72.730469 194.464844 72.730469 C 193.714844 72.359375 192.585938 72.730469 191.832031 72.730469 C 190.328125 73.101562 188.824219 73.101562 187.320312 72.359375 C 185.4375 71.617188 183.933594 70.875 182.429688 70.132812 C 181.300781 69.390625 180.546875 68.648438 179.417969 67.90625 C 177.164062 66.046875 174.90625 63.820312 172.273438 61.964844 C 172.648438 60.109375 171.898438 59.738281 170.390625 59.738281 C 169.640625 59.738281 168.886719 60.109375 168.136719 60.480469 C 167.757812 60.851562 167.757812 60.851562 167.382812 61.222656 C 166.253906 61.964844 165.5 63.078125 164.375 63.820312 C 162.492188 64.933594 161.742188 64.566406 160.234375 63.820312 C 159.859375 63.449219 159.484375 63.078125 159.105469 62.707031 C 158.355469 61.964844 157.601562 60.851562 157.226562 60.109375 C 156.472656 58.625 154.96875 58.625 153.464844 58.625 C 152.710938 58.625 151.582031 58.996094 150.832031 58.996094 C 149.328125 58.996094 147.824219 59.738281 147.070312 60.851562 C 146.316406 61.964844 145.566406 63.078125 144.4375 64.191406 C 144.0625 64.5625 143.308594 64.933594 142.933594 65.675781 C 142.179688 66.421875 141.429688 66.421875 140.675781 65.675781 C 140.300781 65.304688 139.921875 65.304688 139.546875 64.933594 C 139.171875 65.304688 138.792969 65.675781 138.792969 66.046875 C 138.417969 66.792969 138.042969 67.535156 137.667969 68.648438 C 137.289062 69.761719 136.539062 70.875 135.785156 71.617188 C 135.410156 71.988281 135.410156 71.988281 135.03125 72.359375 C 134.65625 73.105469 133.527344 73.476562 132.777344 73.476562 C 132.023438 74.21875 131.269531 75.332031 130.894531 76.074219 C 130.519531 76.816406 130.140625 77.558594 129.765625 78.671875 C 129.390625 79.042969 129.390625 79.785156 129.015625 80.15625 C 128.636719 80.898438 128.636719 81.269531 128.636719 82.015625 C 129.015625 83.128906 128.261719 83.5 127.132812 83.871094 C 126.382812 83.871094 126.382812 83.871094 126.003906 84.613281 C 126.003906 85.726562 126.382812 86.46875 126.757812 87.582031 C 127.132812 87.953125 127.507812 88.699219 127.507812 89.070312 C 127.507812 89.8125 127.886719 90.183594 128.636719 90.554688 C 129.015625 90.925781 129.390625 91.296875 129.765625 91.296875 C 130.140625 91.296875 130.140625 91.667969 130.519531 91.667969 C 130.894531 92.039062 131.273438 91.667969 131.269531 91.296875 C 131.648438 90.183594 132.023438 89.070312 132.023438 87.953125 C 132.398438 86.46875 132.398438 85.355469 132.777344 83.871094 C 133.152344 83.128906 133.527344 82.757812 133.902344 82.386719 C 133.902344 82.386719 134.28125 82.386719 134.65625 82.386719 L 134.65625 82.757812 C 134.28125 84.613281 133.527344 86.839844 133.152344 88.699219 C 132.777344 89.441406 132.777344 90.183594 132.398438 90.925781 C 132.398438 91.296875 132.023438 91.667969 131.648438 91.667969 C 130.894531 92.039062 130.144531 92.410156 129.390625 92.410156 C 129.015625 92.410156 128.636719 92.410156 128.261719 92.410156 C 127.507812 92.039062 126.757812 91.296875 126.003906 90.925781 C 125.628906 90.554688 125.253906 90.179688 124.875 89.8125 C 124.5 89.070312 124.125 88.328125 123.746094 87.582031 C 123.371094 86.839844 122.996094 86.46875 122.242188 86.097656 C 121.867188 85.726562 121.492188 85.726562 121.113281 85.355469 C 120.363281 84.613281 119.609375 84.242188 118.480469 84.242188 C 118.105469 84.242188 117.351562 84.242188 116.976562 84.242188 C 116.601562 84.242188 115.847656 84.613281 115.472656 84.984375 C 114.71875 85.355469 114.34375 85.355469 113.59375 84.984375 C 111.710938 84.242188 109.832031 84.613281 107.949219 85.355469 C 107.195312 85.726562 106.445312 86.097656 105.691406 86.097656 C 103.8125 86.097656 102.304688 86.097656 100.425781 86.097656 C 98.546875 86.097656 97.039062 85.726562 95.160156 85.355469 C 94.40625 85.355469 93.65625 85.355469 92.902344 85.355469 C 91.398438 85.726562 91.019531 86.839844 91.398438 88.324219 C 91.773438 89.808594 92.152344 91.667969 92.152344 93.152344 C 92.152344 94.265625 92.152344 95.378906 92.152344 96.492188 C 92.152344 97.238281 92.152344 97.609375 92.152344 98.351562 C 92.152344 99.464844 91.773438 100.578125 91.773438 101.691406 C 91.398438 103.917969 90.269531 105.777344 88.765625 107.261719 C 87.636719 108.375 86.132812 109.488281 84.625 109.859375 C 83.875 110.230469 83.121094 110.601562 81.992188 110.972656 C 80.113281 111.714844 78.609375 113.203125 77.480469 115.058594 C 77.105469 115.800781 76.726562 116.542969 76.351562 117.285156 C 75.597656 118.398438 75.222656 119.140625 74.46875 120.253906 C 74.09375 121 73.34375 121.742188 72.964844 122.484375 C 72.589844 123.226562 71.835938 123.597656 71.835938 124.339844 C 71.085938 125.824219 70.710938 127.308594 69.957031 128.792969 C 69.582031 129.539062 69.582031 130.652344 69.203125 131.394531 C 68.453125 132.878906 68.453125 134.363281 68.453125 136.222656 C 68.453125 136.59375 68.453125 136.964844 68.453125 137.707031 C 68.453125 139.5625 68.074219 141.789062 68.074219 143.644531 C 68.074219 145.503906 68.074219 147.359375 68.453125 149.214844 C 68.453125 149.957031 68.453125 151.074219 68.453125 151.816406 C 68.453125 153.300781 68.828125 155.15625 68.828125 156.640625 C 68.828125 158.125 68.828125 159.984375 69.582031 161.46875 L 69.582031 161.839844 C 69.957031 163.324219 69.957031 164.808594 70.332031 166.292969 C 70.332031 166.664062 70.332031 167.035156 70.710938 167.40625 C 71.460938 169.636719 71.835938 171.492188 72.589844 173.71875 C 72.964844 175.203125 73.71875 176.691406 74.09375 178.175781 C 74.46875 179.660156 75.976562 181.144531 76.351562 183 C 77.480469 185.230469 78.609375 187.457031 80.113281 189.683594 C 80.488281 190.425781 81.242188 191.167969 81.617188 191.914062 C 82.371094 193.027344 82.746094 194.140625 83.5 194.882812 C 83.875 195.625 84.625 196.367188 85.003906 196.738281 C 85.378906 197.480469 85.757812 198.222656 86.507812 198.96875 C 87.261719 199.710938 88.011719 200.824219 88.765625 201.566406 C 89.894531 203.421875 91.398438 204.90625 92.902344 206.019531 C 93.65625 206.765625 94.40625 207.136719 95.160156 207.878906 C 95.535156 208.25 95.910156 208.25 95.910156 208.621094 C 96.289062 208.992188 96.664062 209.363281 97.417969 209.734375 C 100.425781 211.21875 102.683594 213.445312 105.316406 215.675781 C 106.445312 216.789062 107.574219 217.902344 109.078125 218.644531 C 110.582031 219.757812 111.710938 220.871094 113.59375 221.242188 C 113.59375 221.242188 113.96875 221.242188 113.96875 221.613281 C 114.71875 222.359375 115.847656 222.730469 116.601562 223.101562 C 118.105469 223.84375 119.988281 224.585938 121.492188 225.328125 C 121.867188 225.699219 122.621094 225.699219 122.996094 226.070312 C 124.125 226.441406 125.253906 226.8125 126.382812 227.183594 C 127.507812 227.554688 128.261719 227.925781 129.390625 227.925781 L 129.765625 227.925781 C 130.519531 228.296875 130.894531 228.296875 131.648438 227.925781 C 132.023438 227.925781 132.398438 227.925781 132.398438 228.296875 C 132.398438 228.667969 132.777344 228.667969 133.152344 228.667969 C 133.527344 228.667969 133.90625 228.667969 134.65625 228.667969 C 135.03125 228.296875 135.03125 227.925781 135.410156 227.183594 C 135.785156 227.554688 136.160156 227.554688 136.160156 227.554688 C 136.535156 228.296875 137.289062 228.296875 138.042969 228.296875 L 138.417969 228.296875 C 139.171875 228.296875 139.546875 228.296875 139.921875 227.925781 C 139.921875 227.554688 140.675781 227.554688 141.050781 227.554688 C 142.179688 227.925781 143.308594 227.925781 144.4375 228.296875 C 145.1875 228.667969 146.316406 228.667969 146.695312 227.925781 C 147.070312 227.554688 147.445312 227.183594 148.199219 227.554688 C 148.949219 227.925781 149.328125 227.925781 150.078125 227.554688 C 150.457031 227.554688 150.832031 227.554688 150.832031 227.554688 C 151.960938 227.925781 152.714844 227.925781 153.839844 228.296875 C 155.34375 228.667969 155.34375 228.667969 156.472656 227.554688 C 156.851562 227.183594 157.601562 227.183594 157.976562 227.554688 C 158.355469 228.296875 158.355469 228.667969 158.355469 229.410156 C 158.730469 229.410156 158.730469 229.410156 159.105469 229.039062 C 159.105469 228.296875 159.484375 228.296875 160.234375 227.925781 C 160.613281 228.296875 160.613281 228.296875 160.988281 228.296875 C 161.742188 229.039062 162.117188 229.039062 162.492188 227.925781 C 162.492188 227.554688 162.492188 227.183594 162.871094 227.183594 C 163.246094 227.183594 163.621094 227.554688 163.621094 227.554688 C 163.996094 228.296875 164.75 228.667969 165.125 229.410156 C 165.878906 230.152344 167.007812 230.152344 167.382812 229.410156 C 167.757812 229.039062 168.136719 229.039062 168.511719 229.039062 C 168.511719 228.667969 168.511719 228.296875 168.511719 227.925781 C 169.640625 228.667969 169.265625 228.667969 168.886719 228.667969 Z M 106.445312 55.28125 C 107.574219 55.652344 108.324219 55.652344 108.699219 54.910156 C 107.949219 55.28125 107.195312 54.539062 106.445312 55.28125 Z M 106.445312 55.28125 "/>
</g>
<g clip-path="url(#clip2)" clip-rule="nonzero">
<path style=" stroke:none;fill-rule:nonzero;fill:rgb(100%,100%,100%);fill-opacity:1;" d="M 117.359375 200.371094 C 111.71875 200.371094 106.78125 199.515625 102.546875 197.8125 C 98.3125 196.121094 95.050781 194.121094 92.757812 191.804688 C 90.464844 189.507812 89.320312 187.445312 89.320312 185.617188 C 89.320312 184.746094 89.566406 183.851562 90.0625 182.929688 C 90.535156 182.023438 91.152344 181.238281 91.914062 180.578125 C 92.652344 179.933594 93.421875 179.613281 94.214844 179.613281 C 95.273438 179.613281 96.304688 180.132812 97.308594 181.179688 C 98.332031 182.222656 99.621094 183.457031 101.171875 184.886719 C 102.707031 186.332031 104.707031 187.574219 107.175781 188.621094 C 109.644531 189.664062 112.863281 190.1875 116.832031 190.1875 C 120.535156 190.1875 123.753906 189.601562 126.488281 188.4375 C 129.222656 187.253906 131.363281 185.460938 132.917969 183.058594 C 134.449219 180.671875 135.21875 177.652344 135.21875 173.996094 C 135.21875 170.253906 134.425781 167.210938 132.835938 164.859375 C 131.25 162.507812 129.160156 160.550781 126.566406 158.984375 C 123.957031 157.417969 121.136719 156.023438 118.101562 154.808594 C 115.050781 153.589844 111.964844 152.34375 108.84375 151.074219 C 105.703125 149.820312 102.855469 148.253906 100.296875 146.375 C 97.742188 144.511719 95.667969 142.101562 94.082031 139.140625 C 92.496094 136.179688 91.699219 132.4375 91.699219 127.914062 C 91.699219 123.125 92.582031 119.167969 94.347656 116.03125 C 96.109375 112.898438 98.445312 110.417969 101.355469 108.589844 C 104.265625 106.765625 107.421875 105.476562 110.828125 104.726562 C 114.214844 103.996094 117.539062 103.628906 120.800781 103.628906 C 123.179688 103.628906 125.695312 103.804688 128.339844 104.152344 C 130.984375 104.5 133.5 105.023438 135.878906 105.71875 C 138.261719 106.414062 140.199219 107.304688 141.699219 108.382812 C 143.199219 109.480469 143.949219 110.765625 143.949219 112.246094 C 143.949219 112.941406 143.769531 113.742188 143.417969 114.648438 C 143.066406 115.570312 142.535156 116.398438 141.832031 117.128906 C 141.125 117.878906 140.242188 118.253906 139.1875 118.253906 C 138.214844 118.253906 137.023438 117.835938 135.613281 117 C 134.203125 116.179688 132.335938 115.355469 130.007812 114.519531 C 127.660156 113.699219 124.59375 113.292969 120.800781 113.292969 C 117.625 113.292969 114.652344 113.726562 111.886719 114.597656 C 109.097656 115.46875 106.894531 116.902344 105.273438 118.90625 C 103.632812 120.90625 102.8125 123.5625 102.8125 126.867188 C 102.8125 130.003906 103.605469 132.570312 105.191406 134.570312 C 106.78125 136.574219 108.851562 138.226562 111.410156 139.53125 C 113.964844 140.835938 116.789062 142.03125 119.875 143.109375 C 122.960938 144.207031 126.046875 145.46875 129.132812 146.894531 C 132.21875 148.339844 135.066406 150.105469 137.679688 152.195312 C 140.269531 154.285156 142.359375 157 143.949219 160.34375 C 145.535156 163.703125 146.328125 167.90625 146.328125 172.953125 C 146.328125 179.21875 145.078125 184.382812 142.570312 188.4375 C 140.050781 192.476562 136.628906 195.46875 132.308594 197.417969 C 127.988281 199.386719 123.003906 200.371094 117.359375 200.371094 Z M 212.066406 199.585938 C 211.007812 199.585938 210.054688 199.152344 209.210938 198.28125 C 208.378906 197.410156 207.65625 196.410156 207.039062 195.277344 L 187.199219 157.027344 L 171.855469 157.027344 L 171.855469 195.410156 C 171.855469 196.714844 171.285156 197.6875 170.136719 198.332031 C 168.992188 198.996094 167.710938 199.324219 166.300781 199.324219 C 164.976562 199.324219 163.71875 198.996094 162.519531 198.332031 C 161.335938 197.6875 160.746094 196.714844 160.746094 195.410156 L 160.746094 107.675781 C 160.746094 106.632812 161.117188 105.761719 161.855469 105.066406 C 162.613281 104.371094 163.566406 103.980469 164.714844 103.890625 L 188.917969 103.890625 C 194.296875 103.890625 199.210938 104.691406 203.652344 106.292969 C 208.117188 107.914062 211.667969 110.621094 214.316406 114.414062 C 216.960938 118.191406 218.28125 123.386719 218.28125 130.003906 C 218.28125 135.3125 217.417969 139.707031 215.691406 143.1875 C 213.980469 146.667969 211.625 149.382812 208.628906 151.335938 C 205.628906 153.300781 202.277344 154.675781 198.574219 155.460938 L 218.152344 192.144531 C 218.328125 192.492188 218.460938 192.816406 218.546875 193.109375 C 218.636719 193.425781 218.679688 193.710938 218.679688 193.972656 C 218.679688 194.929688 218.34375 195.84375 217.675781 196.714844 C 217.023438 197.585938 216.183594 198.28125 215.160156 198.804688 C 214.15625 199.324219 213.125 199.585938 212.066406 199.585938 Z M 171.855469 113.8125 L 171.855469 147.886719 L 188.917969 147.886719 C 194.386719 147.886719 198.796875 146.582031 202.144531 143.972656 C 205.496094 141.359375 207.171875 136.964844 207.171875 130.785156 C 207.171875 124.605469 205.496094 120.226562 202.144531 117.652344 C 198.796875 115.09375 194.386719 113.8125 188.917969 113.8125 Z M 171.855469 113.8125 "/>
</g>
</g>
</svg>
